<svg xmlns="http://www.w3.org/2000/svg" viewBox="0 0 24 24" fill="none" stroke="#0ea5e9" stroke-width="2" stroke-linecap="round" stroke-linejoin="round">
  <path d="M11 11.028c-.89-.136-1.574-.954-1.574-1.928 0-1.07.896-1.938 2-1.938 1.105 0 2 .868 2 1.938 0 .974-.684 1.792-1.574 1.928"/>
  <path d="M11 11.028A2 2 0 0 0 13 13h1a2 2 0 0 0 2-2V9.5"/>
  <path d="M9 11.028A2 2 0 0 1 7 13H6a2 2 0 0 1-2-2V9.5"/>
  <path d="M14 13a2 2 0 0 1 2 2v2a2 2 0 0 1-2 2h-4a2 2 0 0 1-2-2v-2a2 2 0 0 1 2-2z"/>
  <circle cx="16.5" cy="6.5" r="1.5"/>
  <circle cx="7.5" cy="6.5" r="1.5"/>
</svg>